# xmcd CD database file
# Copyright (C) 1993-1998 Ti Kan
#
# Track frame offsets:
#	150
#	21477
#	42997
#	63682
#	81620
#	103257
#	125037
#	145767
#	166037
#	184452
#	205450
#	238447
#
# Disc length: 4209 seconds
#
# Revision: 1
# Processed by: cddbd v1.4b41PL1 Copyright (c) Steve Scherf et al.
# Submitted via: CDValet v3.31 - Copyright (c) 1997 Greg Leichner
#
DISCID=c2106f0c
DTITLE=Joe McBride - Keys To Your Hert
DYEAR=1900
DGENRE=
TTITLE0=Highland Park
TTITLE1=Let´s Spend Some Time Together
TTITLE2=People Make The World Go Round
TTITLE3=It´s Got To Be Love
TTITLE4=Chit-Chat
TTITLE5=After Sunset
TTITLE6=I Can Never Get Enough
TTITLE7=Miracles
TTITLE8=High Steppin´
TTITLE9=You Are My Lady
TTITLE10=Squeeze Play
TTITLE11=
EXTD=
EXTT0=
EXTT1=
EXTT2=
EXTT3=
EXTT4=
EXTT5=
EXTT6=
EXTT7=
EXTT8=
EXTT9=
EXTT10=
EXTT11=
PLAYORDER=
